Jump_normalized_pl12_filtered_grf
version=1
nRows=20
nColumns=37
inDegrees=yes
endheader
time		1_ground_force_vx		1_ground_force_vy		1_ground_force_vz		1_ground_force_px		1_ground_force_py		1_ground_force_pz		1_ground_torque_x		1_ground_torque_y		1_ground_torque_z		2_ground_force_vx		2_ground_force_vy		2_ground_force_vz		2_ground_force_px		2_ground_force_py		2_ground_force_pz		2_ground_torque_x		2_ground_torque_y		2_ground_torque_z		3_ground_force_vx		3_ground_force_vy		3_ground_force_vz		3_ground_force_px		3_ground_force_py		3_ground_force_pz		3_ground_torque_x		3_ground_torque_y		3_ground_torque_z		4_ground_force_vx		4_ground_force_vy		4_ground_force_vz		4_ground_force_px		4_ground_force_py		4_ground_force_pz		4_ground_torque_x		4_ground_torque_y		4_ground_torque_z		
0.051167		0.000000		-0.000000		-0.000000		0.089498		0.000000		0.244568		-0.000000		-0.000000		0.000000		0.000000		-0.000000		-0.000000		-0.155022		0.000000		0.264107		-0.000000		0.000000		-0.000000		24.216553		153.773007		257.827193		0.374568		1.309140		1.918372		-1.383872		-8.787465		-14.733713		-17.985140		369.946793		477.163847		-0.265438		1.309223		1.929522		-0.826966		17.010274		21.940202		
0.052581		0.000000		-0.000000		-0.000000		0.089498		0.000000		0.244568		-0.000000		-0.000000		0.000000		0.000000		-0.000000		-0.000000		-0.155022		0.000000		0.264107		-0.000000		0.000000		-0.000000		24.066034		150.790240		252.272245		0.374576		1.309155		1.918401		-1.375910		-8.621021		-14.422977		-18.255369		365.414416		478.191873		-0.265417		1.309234		1.929499		-0.844457		16.903308		22.120190		
0.053995		0.000000		-0.000000		-0.000000		0.089498		0.000000		0.244568		-0.000000		-0.000000		0.000000		0.000000		-0.000000		-0.000000		-0.155022		0.000000		0.264107		-0.000000		0.000000		-0.000000		23.916976		147.748917		246.527654		0.374583		1.309173		1.918429		-1.368063		-8.451315		-14.101511		-18.517871		360.858074		479.213992		-0.265400		1.309245		1.929471		-0.861762		16.793164		22.301067		
0.055409		-0.000000		0.000000		0.000000		0.089498		0.000000		0.244568		0.000000		0.000000		-0.000000		0.000000		-0.000000		-0.000000		-0.155022		0.000000		0.264107		-0.000000		0.000000		-0.000000		23.766244		144.639360		240.594963		0.374590		1.309191		1.918456		-1.360092		-8.277406		-13.768743		-18.773113		356.277507		480.228338		-0.265384		1.309255		1.929442		-0.878889		16.679561		22.482506		
0.056823		-0.000000		0.000000		0.000000		0.089498		0.000000		0.244568		0.000000		0.000000		-0.000000		0.000000		0.000000		-0.000000		-0.155022		0.000000		0.264107		-0.000000		0.000000		0.000000		23.620456		141.447063		234.484693		0.374597		1.309212		1.918484		-1.352306		-8.098052		-13.424593		-19.029867		351.666584		481.240594		-0.265371		1.309267		1.929408		-0.896231		16.562021		22.664472		
0.058237		-0.000000		0.000000		0.000000		0.089498		0.000000		0.244568		0.000000		0.000000		-0.000000		0.000000		0.000000		0.000000		-0.155022		0.000000		0.264107		0.000000		-0.000000		0.000000		23.480960		138.157743		228.200809		0.374605		1.309233		1.918513		-1.344710		-7.912028		-13.068621		-19.293090		347.026967		482.252172		-0.265361		1.309278		1.929372		-0.914014		16.440383		22.846735		
0.059652		-0.000000		0.000000		0.000000		0.089498		0.000000		0.244568		0.000000		0.000000		-0.000000		0.000000		0.000000		0.000000		-0.155022		0.000000		0.264107		0.000000		-0.000000		0.000000		23.351778		134.754046		221.745891		0.374613		1.309256		1.918540		-1.337459		-7.717959		-12.700367		-19.564927		342.361698		483.264948		-0.265353		1.309290		1.929334		-0.932331		16.314557		23.029073		
0.061066		-0.000000		0.000000		0.000000		0.089498		0.000000		0.244568		0.000000		0.000000		-0.000000		0.000000		0.000000		0.000000		-0.155022		0.000000		0.264107		0.000000		-0.000000		0.000000		23.235786		131.215009		215.121469		0.374620		1.309280		1.918567		-1.330647		-7.514311		-12.319397		-19.860147		337.671852		484.282133		-0.265350		1.309303		1.929292		-0.951885		16.184376		23.211335		
0.062480		-0.000000		0.000000		0.000000		0.089498		0.000000		0.244568		0.000000		0.000000		-0.000000		0.000000		0.000000		0.000000		-0.155022		0.000000		0.264107		0.000000		-0.000000		0.000000		23.135910		127.520441		208.323633		0.374629		1.309305		1.918593		-1.324367		-7.299644		-11.925055		-20.165059		332.969599		485.299928		-0.265348		1.309315		1.929248		-0.972022		16.050216		23.393042		
0.063894		-0.000000		0.000000		0.000000		0.089498		0.000000		0.244568		0.000000		0.000000		-0.000000		0.000000		0.000000		0.000000		-0.155022		0.000000		0.264107		0.000000		-0.000000		0.000000		23.053303		123.642322		201.347716		0.374637		1.309329		1.918615		-1.318607		-7.072117		-11.516726		-20.504578		328.256175		486.319340		-0.265353		1.309327		1.929199		-0.993946		15.911941		23.573965		
0.065308		-0.000000		0.000000		0.000000		0.089498		0.000000		0.244568		0.000000		0.000000		-0.000000		-0.000000		0.000000		0.000000		-0.155022		0.000000		0.264107		0.000000		-0.000000		0.000000		22.989413		119.563341		194.187782		0.374645		1.309353		1.918637		-1.313381		-6.830641		-11.093929		-20.852885		323.546650		487.332052		-0.265357		1.309339		1.929148		-1.016412		15.770231		23.753481		
0.066722		-0.000000		0.000000		0.000000		0.089498		0.000000		0.244568		0.000000		0.000000		-0.000000		-0.000000		0.000000		0.000000		-0.155022		0.000000		0.264107		0.000000		-0.000000		0.000000		22.942803		115.261269		186.835488		0.374653		1.309375		1.918655		-1.308529		-6.573870		-10.656071		-21.221760		318.846724		488.331967		-0.265365		1.309353		1.929093		-1.039992		15.625296		23.931100		
0.068136		-0.000000		0.000000		0.000000		0.089498		0.000000		0.244568		0.000000		0.000000		-0.000000		-0.000000		0.000000		0.000000		-0.155022		0.000000		0.264107		0.000000		-0.000000		0.000000		22.912910		110.720062		179.279117		0.374660		1.309395		1.918669		-1.303926		-6.300865		-10.202429		-21.593609		314.166451		489.308556		-0.265376		1.309365		1.929035		-1.063827		15.477603		24.106139		
0.069551		-0.000000		0.000000		0.000000		0.089498		0.000000		0.244568		0.000000		0.000000		-0.000000		-0.000000		0.000000		0.000000		-0.155022		0.000000		0.264107		0.000000		-0.000000		0.000000		22.897264		105.928310		171.507438		0.374664		1.309411		1.918679		-1.299323		-6.010994		-9.732338		-21.964454		309.511834		490.250586		-0.265387		1.309379		1.928975		-1.087712		15.327450		24.277905		
0.070965		0.000000		0.000000		0.000000		0.089498		0.000000		0.244568		0.000000		0.000000		-0.000000		-0.000000		0.000000		0.000000		-0.155022		0.000000		0.264107		0.000000		-0.000000		0.000000		22.893960		100.881983		163.507412		0.374667		1.309422		1.918685		-1.294465		-5.704057		-9.245016		-22.318909		304.891131		491.143019		-0.265400		1.309394		1.928911		-1.110872		15.175239		24.445506		
0.072379		0.000000		-0.000000		-0.000000		0.089498		0.000000		0.244568		-0.000000		-0.000000		0.000000		-0.000000		0.000000		0.000000		-0.155022		0.000000		0.264107		0.000000		-0.000000		0.000000		22.900205		95.588144		155.271175		0.374669		1.309431		1.918687		-1.289015		-5.380536		-8.740015		-22.650094		300.304844		491.973031		-0.265412		1.309408		1.928845		-1.132944		15.021022		24.608166		
0.073793		0.000000		-0.000000		-0.000000		0.089498		0.000000		0.244568		-0.000000		-0.000000		0.000000		-0.000000		-0.000000		0.000000		-0.155022		0.000000		0.264107		-0.000000		0.000000		-0.000000		22.914886		90.072690		146.798873		0.374666		1.309432		1.918680		-1.282705		-5.042050		-8.217437		-22.935334		295.760167		492.723985		-0.265424		1.309424		1.928775		-1.152761		14.865252		24.764944		
0.075207		0.000000		-0.000000		-0.000000		0.089498		0.000000		0.244568		-0.000000		-0.000000		0.000000		-0.000000		-0.000000		-0.000000		-0.155022		0.000000		0.264107		-0.000000		0.000000		-0.000000		22.935435		84.368243		138.097520		0.374662		1.309431		1.918672		-1.275116		-4.690606		-7.677775		-23.177624		291.251599		493.384946		-0.265436		1.309439		1.928705		-1.170434		14.707701		24.915143		
0.076621		0.000000		-0.000000		-0.000000		0.089498		0.000000		0.244568		-0.000000		-0.000000		0.000000		-0.000000		-0.000000		-0.000000		-0.155022		0.000000		0.264107		-0.000000		0.000000		-0.000000		22.962193		78.522254		129.181620		0.374653		1.309424		1.918657		-1.265932		-4.329092		-7.122038		-23.351120		286.782256		493.941418		-0.265446		1.309457		1.928632		-1.184613		14.548564		25.057863		
0.078035		0.000000		-0.000000		-0.000000		0.089498		0.000000		0.244568		-0.000000		-0.000000		0.000000		-0.000000		-0.000000		-0.000000		-0.155022		0.000000		0.264107		-0.000000		0.000000		-0.000000		22.993422		72.589983		120.078453		0.374644		1.309414		1.918638		-1.254633		-3.960893		-6.552111		-23.462691		282.346764		494.383452		-0.265455		1.309477		1.928558		-1.195594		14.387598		25.192406		
